# xmcd CD database file
#
# Track frame offsets:
#	150
#	20740
#	44482
#	64456
#	88496
#	121446
#	150973
#	177814
#	195032
#	204535
#	242746
#
# Disc length: 3501 seconds
#
# Revision: 0
# Processed by: cddbd v1.5.2PL0 Copyright (c) Steve Scherf et al.
# Submitted via: CDex 1.70beta2
#
DISCID=940dab0b
DTITLE=Que Passa - For You
DYEAR=2009
DGENRE=Jazz
TTITLE0=Blues for Daddy
TTITLE1=Patrol
TTITLE2=Kindergarden
TTITLE3=My love is for you
TTITLE4=Malcom (for my son)
TTITLE5=Goodbye my friend (for Adam)
TTITLE6=Mojacar (hot city)
TTITLE7=Mopnster
TTITLE8=Rainy etude
TTITLE9=Suite of voices
TTITLE10=Tangos de cadaques
EXTD=YEAR: 2009
EXTT0=
EXTT1=
EXTT2=
EXTT3=
EXTT4=
EXTT5=
EXTT6=
EXTT7=
EXTT8=
EXTT9=
EXTT10=
PLAYORDER=
